<svg xmlns="http://www.w3.org/2000/svg" viewBox="0 0 100 100" xmlns:v="https://vecta.io/nano"><linearGradient id="A" gradientUnits="userSpaceOnUse" x1="35.469" y1="38.094" x2="35.469" y2="45.55"><stop offset="0" stop-color="#29abe2"/><stop offset=".262" stop-color="#649ed3"/><stop offset=".773" stop-color="#d385b7"/><stop offset="1" stop-color="#ff7bac"/></linearGradient><path d="M35.5,38.1c2.1,0,3.7,1.7,3.7,3.7s-1.7,3.7-3.7,3.7s-3.7-1.7-3.7-3.7S33.4,38.1,35.5,38.1z" fill="url(#A)"/><linearGradient id="B" gradientUnits="userSpaceOnUse" x1="59.699" y1="43.065" x2="59.699" y2="62.946"><stop offset="0" stop-color="#29abe2"/><stop offset=".262" stop-color="#649ed3"/><stop offset=".773" stop-color="#d385b7"/><stop offset="1" stop-color="#ff7bac"/></linearGradient><path d="M56.6 43.1l-4.8 7.6 3.6 3.5-5 5 1 3.7H69z" fill="url(#B)"/><linearGradient id="C" gradientUnits="userSpaceOnUse" x1="42.303" y1="48.135" x2="42.303" y2="62.946"><stop offset="0" stop-color="#29abe2"/><stop offset=".262" stop-color="#649ed3"/><stop offset=".773" stop-color="#d385b7"/><stop offset="1" stop-color="#ff7bac"/></linearGradient><path d="M52.9 54.2l-3.6-3.5-1.5 2.3-6.1-4.9-10 14.8H49l-1.1-3.7z" fill="url(#C)"/><linearGradient id="D" gradientUnits="userSpaceOnUse" x1="64.67" y1="28.154" x2="64.67" y2="72.886"><stop offset="0" stop-color="#29abe2"/><stop offset=".262" stop-color="#649ed3"/><stop offset=".773" stop-color="#d385b7"/><stop offset="1" stop-color="#ff7bac"/></linearGradient><path d="M81.4 28.2H48.8l-.9 3.7.8 1.2h27.8v34.8H52.9l1.4 5h27.1z" fill="url(#D)"/><linearGradient id="E" gradientUnits="userSpaceOnUse" x1="35.557" y1="28.154" x2="35.557" y2="72.886"><stop offset="0" stop-color="#29abe2"/><stop offset=".262" stop-color="#649ed3"/><stop offset=".773" stop-color="#d385b7"/><stop offset="1" stop-color="#ff7bac"/></linearGradient><path d="M24.3 67.9V33.1h21.9l-.8-1.2.9-3.7h-27v44.7h32.5l-1.4-5z" fill="url(#E)"/><circle cx="35.5" cy="41.8" r="3.7" fill="url(#A)"/></svg>