<?xml version="1.0" encoding="utf-8"?>
<!-- Generator: Adobe Illustrator 24.1.1, SVG Export Plug-In . SVG Version: 6.00 Build 0)  -->
<svg version="1.1" id="Layer_1" xmlns="http://www.w3.org/2000/svg" xmlns:xlink="http://www.w3.org/1999/xlink" x="0px" y="0px"
	 viewBox="0 0 100 100" style="enable-background:new 0 0 100 100;" xml:space="preserve">
<style type="text/css">
	.st0{fill:url(#SVGID_1_);}
	.st1{fill:url(#SVGID_2_);}
	.st2{fill:url(#SVGID_3_);}
	.st3{fill:url(#SVGID_4_);}
	.st4{fill:url(#SVGID_5_);}
	.st5{fill:url(#SVGID_6_);}
</style>
<linearGradient id="SVGID_1_" gradientUnits="userSpaceOnUse" x1="35.4691" y1="63.9058" x2="35.4691" y2="56.4503" gradientTransform="matrix(1 0 0 -1 0 102)">
	<stop  offset="0" style="stop-color:#29ABE2"/>
	<stop  offset="0.2619" style="stop-color:#649ED3"/>
	<stop  offset="0.7728" style="stop-color:#D385B7"/>
	<stop  offset="1" style="stop-color:#FF7BAC"/>
</linearGradient>
<path class="st0" d="M35.5,38.1c2.1,0,3.7,1.7,3.7,3.7s-1.7,3.7-3.7,3.7s-3.7-1.7-3.7-3.7S33.4,38.1,35.5,38.1z"/>
<linearGradient id="SVGID_2_" gradientUnits="userSpaceOnUse" x1="59.6993" y1="58.9355" x2="59.6993" y2="39.0542" gradientTransform="matrix(1 0 0 -1 0 102)">
	<stop  offset="0" style="stop-color:#29ABE2"/>
	<stop  offset="0.2619" style="stop-color:#649ED3"/>
	<stop  offset="0.7728" style="stop-color:#D385B7"/>
	<stop  offset="1" style="stop-color:#FF7BAC"/>
</linearGradient>
<polygon class="st1" points="56.6,43.1 51.8,50.7 55.4,54.2 50.4,59.2 51.4,62.9 69,62.9 "/>
<linearGradient id="SVGID_3_" gradientUnits="userSpaceOnUse" x1="42.3032" y1="53.8647" x2="42.3032" y2="39.0542" gradientTransform="matrix(1 0 0 -1 0 102)">
	<stop  offset="0" style="stop-color:#29ABE2"/>
	<stop  offset="0.2619" style="stop-color:#649ED3"/>
	<stop  offset="0.7728" style="stop-color:#D385B7"/>
	<stop  offset="1" style="stop-color:#FF7BAC"/>
</linearGradient>
<polygon class="st2" points="52.9,54.2 49.3,50.7 47.8,53 41.7,48.1 31.7,62.9 49,62.9 47.9,59.2 "/>
<linearGradient id="SVGID_4_" gradientUnits="userSpaceOnUse" x1="64.6696" y1="73.8464" x2="64.6696" y2="29.1136" gradientTransform="matrix(1 0 0 -1 0 102)">
	<stop  offset="0" style="stop-color:#29ABE2"/>
	<stop  offset="0.2619" style="stop-color:#649ED3"/>
	<stop  offset="0.7728" style="stop-color:#D385B7"/>
	<stop  offset="1" style="stop-color:#FF7BAC"/>
</linearGradient>
<polygon class="st3" points="81.4,28.2 48.8,28.2 47.9,31.9 48.7,33.1 76.5,33.1 76.5,67.9 52.9,67.9 54.3,72.9 81.4,72.9 "/>
<linearGradient id="SVGID_5_" gradientUnits="userSpaceOnUse" x1="35.5569" y1="73.8464" x2="35.5569" y2="29.1136" gradientTransform="matrix(1 0 0 -1 0 102)">
	<stop  offset="0" style="stop-color:#29ABE2"/>
	<stop  offset="0.2619" style="stop-color:#649ED3"/>
	<stop  offset="0.7728" style="stop-color:#D385B7"/>
	<stop  offset="1" style="stop-color:#FF7BAC"/>
</linearGradient>
<polygon class="st4" points="24.3,67.9 24.3,33.1 46.2,33.1 45.4,31.9 46.3,28.2 19.3,28.2 19.3,72.9 51.8,72.9 50.4,67.9 "/>
<linearGradient id="SVGID_6_" gradientUnits="userSpaceOnUse" x1="35.4691" y1="63.9058" x2="35.4691" y2="56.4503" gradientTransform="matrix(1 0 0 -1 0 102)">
	<stop  offset="0" style="stop-color:#29ABE2"/>
	<stop  offset="0.2619" style="stop-color:#649ED3"/>
	<stop  offset="0.7728" style="stop-color:#D385B7"/>
	<stop  offset="1" style="stop-color:#FF7BAC"/>
</linearGradient>
<circle class="st5" cx="35.5" cy="41.8" r="3.7"/>
</svg>
