<?xml version="1.0" encoding="utf-8"?>
<!-- Generator: Adobe Illustrator 24.1.1, SVG Export Plug-In . SVG Version: 6.00 Build 0)  -->
<svg version="1.1" id="Layer_1" xmlns="http://www.w3.org/2000/svg" xmlns:xlink="http://www.w3.org/1999/xlink" x="0px" y="0px"
	 viewBox="0 0 100 100" style="enable-background:new 0 0 100 100;" xml:space="preserve">
<style type="text/css">
	.st0{fill:url(#SVGID_1_);}
	.st1{fill:url(#SVGID_2_);}
	.st2{fill:url(#SVGID_3_);}
	.st3{fill:url(#SVGID_4_);}
	.st4{fill:url(#SVGID_5_);}
	.st5{fill:url(#SVGID_6_);}
</style>
<linearGradient id="SVGID_1_" gradientUnits="userSpaceOnUse" x1="38.5002" y1="40.6169" x2="38.5002" y2="46.5569">
	<stop  offset="0" style="stop-color:#29ABE2"/>
	<stop  offset="0.2619" style="stop-color:#649ED3"/>
	<stop  offset="0.7728" style="stop-color:#D385B7"/>
	<stop  offset="1" style="stop-color:#FF7BAC"/>
</linearGradient>
<path class="st0" d="M38.5,40.62c1.64,0,2.97,1.33,2.97,2.97c0,1.64-1.33,2.97-2.97,2.97c-1.64,0-2.97-1.33-2.97-2.97
	C35.53,41.95,36.86,40.62,38.5,40.62z"/>
<linearGradient id="SVGID_2_" gradientUnits="userSpaceOnUse" x1="57.8052" y1="44.5769" x2="57.8052" y2="60.4169">
	<stop  offset="0" style="stop-color:#29ABE2"/>
	<stop  offset="0.2619" style="stop-color:#649ED3"/>
	<stop  offset="0.7728" style="stop-color:#D385B7"/>
	<stop  offset="1" style="stop-color:#FF7BAC"/>
</linearGradient>
<polygon class="st1" points="55.33,44.58 51.5,50.65 54.34,53.49 50.38,57.45 51.23,60.42 65.23,60.42 "/>
<linearGradient id="SVGID_3_" gradientUnits="userSpaceOnUse" x1="43.9452" y1="48.6162" x2="43.9452" y2="60.4169">
	<stop  offset="0" style="stop-color:#29ABE2"/>
	<stop  offset="0.2619" style="stop-color:#649ED3"/>
	<stop  offset="0.7728" style="stop-color:#D385B7"/>
	<stop  offset="1" style="stop-color:#FF7BAC"/>
</linearGradient>
<polygon class="st2" points="52.36,53.49 49.52,50.65 48.36,52.5 43.45,48.62 35.53,60.42 49.25,60.42 48.4,57.45 "/>
<linearGradient id="SVGID_4_" gradientUnits="userSpaceOnUse" x1="61.7652" y1="32.6969" x2="61.7652" y2="68.3369">
	<stop  offset="0" style="stop-color:#29ABE2"/>
	<stop  offset="0.2619" style="stop-color:#649ED3"/>
	<stop  offset="0.7728" style="stop-color:#D385B7"/>
	<stop  offset="1" style="stop-color:#FF7BAC"/>
</linearGradient>
<polygon class="st3" points="75.13,32.7 49.14,32.7 48.4,35.67 49.06,36.66 71.17,36.66 71.17,64.38 52.36,64.38 53.49,68.34 
	75.13,68.34 "/>
<linearGradient id="SVGID_5_" gradientUnits="userSpaceOnUse" x1="38.5708" y1="32.6969" x2="38.5708" y2="68.3369">
	<stop  offset="0" style="stop-color:#29ABE2"/>
	<stop  offset="0.2619" style="stop-color:#649ED3"/>
	<stop  offset="0.7728" style="stop-color:#D385B7"/>
	<stop  offset="1" style="stop-color:#FF7BAC"/>
</linearGradient>
<polygon class="st4" points="29.59,64.38 29.59,36.66 47.08,36.66 46.42,35.67 47.16,32.7 25.63,32.7 25.63,68.34 51.51,68.34 
	50.38,64.38 "/>
<linearGradient id="SVGID_6_" gradientUnits="userSpaceOnUse" x1="38.5002" y1="40.6169" x2="38.5002" y2="46.5569">
	<stop  offset="0" style="stop-color:#29ABE2"/>
	<stop  offset="0.2619" style="stop-color:#649ED3"/>
	<stop  offset="0.7728" style="stop-color:#D385B7"/>
	<stop  offset="1" style="stop-color:#FF7BAC"/>
</linearGradient>
<circle class="st5" cx="38.5" cy="43.59" r="2.97"/>
</svg>
