<svg xmlns="http://www.w3.org/2000/svg" viewBox="0 0 2399.1 2500" fill="#fff" xmlns:v="https://vecta.io/nano"><path d="M224.4 1237.6v1138.1h1951V1237.6h-1951zm1788.4 975.5H387v-812.9h1625.8v812.9zM728.4 1481.5H891v162.6H728.4zm-260.1 0h162.6v162.6H468.3zm520.3 0h162.6v162.6H988.6zm260.1 0h162.6v162.6h-162.6zm260.2 0h162.6v162.6h-162.6zm260.1 0h162.6v162.6H1769zm-975.5 487.8h812.9v162.6H793.5zm812.9-243.9h325.2V1888h-325.2zm-1138.1 0h325.2V1888H468.3zm406.4 0h162.6V1888H874.7zm243.9 0h162.6V1888h-162.6zm243.9 0h162.6V1888h-162.6zm-231.1-544.5c-53.1-85.3-3.5-208.2 68.3-276.5 74.4 71.4 113.9 201.9 62.2 276.3 187.9-36.4 326.4-187.4 326.4-380.5 0-176.1-89-342.1-257-445.3 39.9 110.8-13.2 212-64.8 246.9 3.1-142-48.5-352.5-212.5-441.3 26.3 305.6-242.9 410.9-242.9 680.1 0 182.8 149.8 311.9 320.3 340.3z"/></svg>