<?xml version="1.0" encoding="utf-8"?>
<!-- Generator: Adobe Illustrator 24.1.2, SVG Export Plug-In . SVG Version: 6.00 Build 0)  -->
<svg version="1.1" id="Layer_1" xmlns="http://www.w3.org/2000/svg" xmlns:xlink="http://www.w3.org/1999/xlink" x="0px" y="0px"
	 viewBox="0 0 2399.1 2500" style="enable-background:new 0 0 2399.1 2500;" xml:space="preserve">
<style type="text/css">
	.st0{fill:#FFFFFF;}
</style>
<path class="st0" d="M224.4,1237.6v1138.1h1951V1237.6H224.4L224.4,1237.6z M2012.8,2213.1H387v-812.9h1625.8V2213.1z M468.3,1481.5
	h243.9v162.6H468.3V1481.5z M793.5,1481.5h162.6v162.6H793.5V1481.5z M1037.3,1481.5h162.6v162.6h-162.6V1481.5z M1281.2,1481.5
	h162.6v162.6h-162.6V1481.5z M1525.1,1481.5h162.6v162.6h-162.6V1481.5z M1769,1481.5h162.6v162.6H1769L1769,1481.5z M793.5,1969.3
	h812.9v162.6H793.5L793.5,1969.3z M1606.4,1725.4h325.2V1888h-325.2V1725.4z M468.3,1725.4h325.2V1888H468.3L468.3,1725.4z
	 M874.7,1725.4h162.6V1888H874.7L874.7,1725.4z M1118.6,1725.4h162.6V1888h-162.6V1725.4z M1362.5,1725.4h162.6V1888h-162.6V1725.4z
	 M1054,160.5c26.3,305.6-242.9,410.9-242.9,680.1c0,182.8,149.8,311.9,320.3,340.3c-53.1-85.3-3.5-208.2,68.3-276.5
	c74.4,71.4,113.9,201.9,62.2,276.3c187.9-36.4,326.4-187.4,326.4-380.5c0-176.1-89-342.1-257-445.3c39.9,110.8-13.2,212-64.8,246.9
	C1269.6,459.8,1218,249.3,1054,160.5L1054,160.5z"/>
</svg>
