<?xml version="1.0" encoding="utf-8"?>
<!-- Generator: Adobe Illustrator 24.1.2, SVG Export Plug-In . SVG Version: 6.00 Build 0)  -->
<svg version="1.1" id="Layer_1" xmlns="http://www.w3.org/2000/svg" xmlns:xlink="http://www.w3.org/1999/xlink" x="0px" y="0px"
	 viewBox="0 0 2399.1 2500" style="enable-background:new 0 0 2399.1 2500;" xml:space="preserve">
<style type="text/css">
	.st0{fill:#CCCCCC;}
</style>
<g>
	<path class="st0" d="M224.4,1237.6v1138.1h1951V1237.6H224.4z M2012.8,2213.1H387v-812.9h1625.8V2213.1z"/>
	<rect x="468.3" y="1481.5" class="st0" width="243.9" height="162.6"/>
	<rect x="793.5" y="1481.5" class="st0" width="162.6" height="162.6"/>
	<rect x="1037.3" y="1481.5" class="st0" width="162.6" height="162.6"/>
	<rect x="1281.2" y="1481.5" class="st0" width="162.6" height="162.6"/>
	<rect x="1525.1" y="1481.5" class="st0" width="162.6" height="162.6"/>
	<rect x="1769" y="1481.5" class="st0" width="162.6" height="162.6"/>
	<rect x="793.5" y="1969.3" class="st0" width="812.9" height="162.6"/>
	<rect x="1606.4" y="1725.4" class="st0" width="325.2" height="162.6"/>
	<rect x="468.3" y="1725.4" class="st0" width="325.2" height="162.6"/>
	<rect x="874.7" y="1725.4" class="st0" width="162.6" height="162.6"/>
	<rect x="1118.6" y="1725.4" class="st0" width="162.6" height="162.6"/>
	<rect x="1362.5" y="1725.4" class="st0" width="162.6" height="162.6"/>
</g>
<path class="st0" d="M1054,160.5c26.3,305.6-242.9,410.9-242.9,680.1c0,182.8,149.8,311.9,320.3,340.3
	c-53.1-85.3-3.5-208.2,68.3-276.5c74.4,71.4,113.9,201.9,62.2,276.3c187.9-36.4,326.4-187.4,326.4-380.5c0-176.1-89-342.1-257-445.3
	c39.9,110.8-13.2,212-64.8,246.9C1269.6,459.8,1218,249.3,1054,160.5z"/>
</svg>
