<svg xmlns="http://www.w3.org/2000/svg" viewBox="0 0 580 580" fill="#fff" xmlns:v="https://vecta.io/nano"><path d="M478.18 132.8h0c0 17.57-14.24 31.8-31.8 31.8H123.63c-17.57 0-31.8-14.24-31.8-31.8h0c0-17.57 14.24-31.8 31.8-31.8h322.74c17.57-.02 31.8 14.22 31.8 31.8zm-80 78.6h0c0 17.57-14.24 31.8-31.8 31.8H43.63c-17.57 0-31.8-14.24-31.8-31.8h0c0-17.57 14.24-31.8 31.8-31.8h322.74c17.57-.01 31.8 14.23 31.8 31.8zm80 78.6h0c0 17.57-14.24 31.8-31.8 31.8H123.63c-17.57 0-31.8-14.24-31.8-31.8h0c0-17.57 14.24-31.8 31.8-31.8h322.74c17.57-.01 31.8 14.22 31.8 31.8zm90 78.6h0c0 17.57-14.24 31.8-31.8 31.8H213.63c-17.57 0-31.8-14.24-31.8-31.8h0c0-17.57 14.24-31.8 31.8-31.8h322.74c17.57-.01 31.8 14.23 31.8 31.8zm-90 78.6h0c0 17.57-14.24 31.8-31.8 31.8H123.63c-17.57 0-31.8-14.24-31.8-31.8h0c0-17.57 14.24-31.8 31.8-31.8h322.74c17.57 0 31.8 14.24 31.8 31.8z"/></svg>