<svg xmlns="http://www.w3.org/2000/svg" xmlns:xlink="http://www.w3.org/1999/xlink" viewBox="0 0 673.6 165.8"><path d="M348.8 105.7c0 8.8-3.2 15.7-9.5 20.7-6.4 5-15.1 7.5-26.3 7.5s-20.3-1.7-27.5-5.2v-15.3a74.16 74.16 0 0 0 14.4 5c5.1 1.2 9.8 1.8 14.2 1.8 6.4 0 11.1-1.2 14.2-3.7 3-2.4 4.6-5.7 4.6-9.8 0-3.7-1.4-6.8-4.2-9.4s-8.6-5.6-17.3-9.1c-9-3.7-15.4-7.8-19.1-12.5s-5.6-10.3-5.6-16.9c0-8.3 2.9-14.8 8.8-19.5s13.7-7.1 23.6-7.1c9.5 0 18.9 2.1 28.3 6.2l-5.1 13.2c-8.8-3.7-16.6-5.5-23.5-5.5-5.2 0-9.2 1.1-11.9 3.4s-4.1 5.3-4.1 9c0 2.6.5 4.8 1.6 6.6s2.9 3.5 5.3 5.2c2.5 1.6 6.9 3.8 13.4 6.4 7.3 3 12.6 5.8 16 8.5s5.9 5.6 7.4 8.9 2.3 7.1 2.3 11.6zm33.4 26.9h-15.9V27.3h15.9v105.3zM404 37.9c0-2.8.8-5 2.3-6.6 1.6-1.5 3.8-2.3 6.7-2.3 2.8 0 5 .8 6.5 2.3 1.6 1.5 2.3 3.7 2.3 6.6 0 2.7-.8 4.8-2.3 6.4-1.6 1.6-3.7 2.3-6.5 2.3-2.9 0-5.1-.8-6.7-2.3s-2.3-3.7-2.3-6.4zm16.8 94.7h-15.9V57.7h15.9v74.9zm88.6 0h-16v-46c0-5.8-1.2-10.1-3.5-12.9s-6-4.3-11.1-4.3c-6.7 0-11.6 2-14.8 6-3.1 4-4.7 10.6-4.7 20v37.3h-15.9v-75H456l2.2 9.8h.8c2.3-3.6 5.5-6.3 9.6-8.3s8.8-2.9 13.8-2.9c18 0 26.9 9.1 26.9 27.4v48.9zM546.8 93l9-11.2 22.6-24.1h18.3l-30.1 32.1 32 42.7H580l-24-32.8-8.7 7.2v25.6h-15.8V27.3h15.8v51.3l-.8 14.4h.3zm52.5-35.3h17.3l15.2 42.4c2.3 6 3.8 11.7 4.6 17h.5c.4-2.5 1.1-5.5 2.2-9s6.8-20.3 17.2-50.4h17.2l-32 84.8c-5.8 15.6-15.5 23.3-29.1 23.3-3.5 0-7-.4-10.3-1.2V152c2.4.5 5.1.8 8.2.8 7.7 0 13.1-4.4 16.2-13.3l2.8-7-30-74.8z"/><linearGradient id="A" gradientUnits="userSpaceOnUse" x1="35.1" y1="13.952" x2="204.612" y2="13.952"><stop offset="0" stop-color="#29abe2"/><stop offset=".262" stop-color="#649ed3"/><stop offset=".773" stop-color="#d385b7"/><stop offset="1" stop-color="#ff7bac"/></linearGradient><use xlink:href="#G" fill="url(#A)"/><linearGradient id="B" gradientUnits="userSpaceOnUse" x1="0" y1="48.435" x2="169.512" y2="48.435"><stop offset="0" stop-color="#29abe2"/><stop offset=".262" stop-color="#649ed3"/><stop offset=".773" stop-color="#d385b7"/><stop offset="1" stop-color="#ff7bac"/></linearGradient><path d="M169.5 48.4h0c0 7.7-6.2 14-14 14H14c-7.7 0-14-6.2-14-14h0c0-7.7 6.2-14 14-14h141.6c7.7.1 13.9 6.3 13.9 14z" fill="url(#B)"/><linearGradient id="C" gradientUnits="userSpaceOnUse" x1="35.1" y1="13.917" x2="204.612" y2="13.917"><stop offset="0" stop-color="#29abe2"/><stop offset=".262" stop-color="#649ed3"/><stop offset=".773" stop-color="#d385b7"/><stop offset="1" stop-color="#ff7bac"/></linearGradient><use xlink:href="#G" y="69" fill="url(#C)"/><linearGradient id="D" gradientUnits="userSpaceOnUse" x1="74.588" y1="117.4" x2="244.099" y2="117.4"><stop offset="0" stop-color="#29abe2"/><stop offset=".262" stop-color="#649ed3"/><stop offset=".773" stop-color="#d385b7"/><stop offset="1" stop-color="#ff7bac"/></linearGradient><path d="M244.1 117.4h0c0 7.7-6.2 14-14 14H88.5c-7.7 0-14-6.2-14-14h0c0-7.7 6.2-14 14-14h141.6c7.8 0 14 6.3 14 14z" fill="url(#D)"/><linearGradient id="E" gradientUnits="userSpaceOnUse" x1="35.1" y1="151.883" x2="204.612" y2="151.883"><stop offset="0" stop-color="#29abe2"/><stop offset=".262" stop-color="#649ed3"/><stop offset=".773" stop-color="#d385b7"/><stop offset="1" stop-color="#ff7bac"/></linearGradient><path d="M204.6 151.9h0c0 7.7-6.2 14-14 14H49.1c-7.7 0-14-6.2-14-14h0c0-7.7 6.2-14 14-14h141.6c7.7 0 13.9 6.3 13.9 14z" fill="url(#E)"/><defs ><path id="G" d="M204.6 13.9h0c0 7.7-6.2 14-14 14H49.1c-7.7 0-14-6.2-14-14h0c0-7.7 6.2-14 14-14h141.6c7.7.1 13.9 6.3 13.9 14z"/></defs></svg>