<svg xmlns="http://www.w3.org/2000/svg" viewBox="0 0 2399.1 2500" fill="#ccc" xmlns:v="https://vecta.io/nano"><path d="M1627 1441.6c72.9-115.8 115.8-252.5 115.8-399.5 0-415-336.4-751.4-751.4-751.4-416.2 0-753.2 338.2-751.4 754.8 1.8 411.1 335.8 745.6 746.8 748.1 148.8.9 287-42.1 404.1-115.8l500.5 500.5c64.2 64.2 168.4 64.2 232.6 0l3.5-3.5c64.2-64.2 64.2-168.4 0-232.6L1627 1441.6zm-635.6 184.9c-322.2 0-584.5-262.2-584.5-584.5s262.3-584.5 584.5-584.5 584.5 262.2 584.5 584.5-262.3 584.5-584.5 584.5zM1182.9 998l-16.6 96.5h134.1v145.9h-160l-40.8 224.5H951.7l40.3-224.5h-92.7l-39.2 224.5H712.8l39.7-224.5H628.4v-145.9h151.2l17.1-96.5H665.4V848.7h158.3l39.7-223.4h147.9l-40.8 223.4h91.6l39.7-223.4h147.9l-40.3 223.4h126.3V998h-152.8zm-256 96.5h91L1035 998h-91.6l-16.5 96.5z"/></svg>