<?xml version="1.0" encoding="utf-8"?>
<!-- Generator: Adobe Illustrator 24.1.2, SVG Export Plug-In . SVG Version: 6.00 Build 0)  -->
<svg version="1.1" id="Layer_1" xmlns="http://www.w3.org/2000/svg" xmlns:xlink="http://www.w3.org/1999/xlink" x="0px" y="0px"
	 viewBox="0 0 2399.1 2500" style="enable-background:new 0 0 2399.1 2500;" xml:space="preserve">
<style type="text/css">
	.st0{fill:#CCCCCC;}
</style>
<path class="st0" d="M1627,1441.6c72.9-115.8,115.8-252.5,115.8-399.5c0-415-336.4-751.4-751.4-751.4
	c-416.2,0-753.2,338.2-751.4,754.8c1.8,411.1,335.8,745.6,746.8,748.1c148.8,0.9,287-42.1,404.1-115.8l500.5,500.5
	c64.2,64.2,168.4,64.2,232.6,0c1.2-1.2,2.4-2.4,3.5-3.5c64.2-64.2,64.2-168.4,0-232.6L1627,1441.6z M991.4,1626.5
	c-322.2,0-584.5-262.2-584.5-584.5s262.3-584.5,584.5-584.5s584.5,262.2,584.5,584.5S1313.6,1626.5,991.4,1626.5z"/>
<g>
	<path class="st0" d="M1182.9,998l-16.6,96.5h134.1v145.9h-160l-40.8,224.5H951.7l40.3-224.5h-92.7l-39.2,224.5H712.8l39.7-224.5
		H628.4v-145.9h151.2l17.1-96.5H665.4V848.7h158.3l39.7-223.4h147.9l-40.8,223.4h91.6l39.7-223.4h147.9l-40.3,223.4h126.3V998
		H1182.9z M926.9,1094.5h91l17.1-96.5h-91.6L926.9,1094.5z"/>
</g>
</svg>
