<?xml version="1.0" encoding="utf-8"?>
<!-- Generator: Adobe Illustrator 24.1.1, SVG Export Plug-In . SVG Version: 6.00 Build 0)  -->
<svg version="1.1" id="Layer_1" xmlns="http://www.w3.org/2000/svg" xmlns:xlink="http://www.w3.org/1999/xlink" x="0px" y="0px"
	 viewBox="0 0 580 672" style="enable-background:new 0 0 580 672;" xml:space="preserve">
<style type="text/css">
	.st0{fill:#FFFFFF;}
</style>
<g>
	<g>
		<path class="st0" d="M478.18,86.81L478.18,86.81c0,17.57-14.24,31.81-31.8,31.81H123.63c-17.57,0-31.8-14.24-31.8-31.8v0
			c0-17.57,14.24-31.8,31.8-31.8h322.74C463.94,55,478.18,69.24,478.18,86.81z"/>
	</g>
	<g>
		<path class="st0" d="M398.18,165.4L398.18,165.4c0,17.57-14.24,31.81-31.8,31.81H43.63c-17.57,0-31.8-14.24-31.8-31.8v0
			c0-17.57,14.24-31.8,31.8-31.8h322.74C383.94,133.6,398.18,147.84,398.18,165.4z"/>
	</g>
	<g>
		<path class="st0" d="M478.18,244L478.18,244c0,17.57-14.24,31.81-31.8,31.81H123.63c-17.57,0-31.8-14.24-31.8-31.8v0
			c0-17.57,14.24-31.8,31.8-31.8h322.74C463.94,212.2,478.18,226.43,478.18,244z"/>
	</g>
	<g>
		<path class="st0" d="M568.18,322.6L568.18,322.6c0,17.57-14.24,31.8-31.8,31.8H213.63c-17.57,0-31.8-14.24-31.8-31.8v0
			c0-17.57,14.24-31.8,31.8-31.8h322.74C553.94,290.79,568.18,305.03,568.18,322.6z"/>
	</g>
	<g>
		<path class="st0" d="M478.18,401.19L478.18,401.19c0,17.57-14.24,31.8-31.8,31.8H123.63c-17.57,0-31.8-14.24-31.8-31.8v0
			c0-17.57,14.24-31.8,31.8-31.8h322.74C463.94,369.39,478.18,383.63,478.18,401.19z"/>
	</g>
</g>
<g>
	<g>
		<path class="st0" d="M155.32,584.4c0,8.79-3.18,15.69-9.54,20.7c-6.36,5.01-15.13,7.51-26.32,7.51c-11.19,0-20.34-1.74-27.47-5.21
			v-15.29c4.51,2.12,9.3,3.79,14.38,5.01c5.07,1.22,9.8,1.83,14.17,1.83c6.4,0,11.13-1.22,14.17-3.65c3.04-2.44,4.57-5.7,4.57-9.81
			c0-3.7-1.4-6.83-4.19-9.4c-2.8-2.57-8.57-5.61-17.32-9.13c-9.02-3.65-15.38-7.82-19.08-12.51c-3.7-4.69-5.55-10.33-5.55-16.91
			c0-8.25,2.93-14.75,8.79-19.48c5.86-4.74,13.73-7.1,23.61-7.1c9.47,0,18.9,2.08,28.28,6.22l-5.14,13.19
			c-8.79-3.7-16.64-5.55-23.54-5.55c-5.23,0-9.2,1.14-11.91,3.42c-2.71,2.28-4.06,5.29-4.06,9.03c0,2.57,0.54,4.77,1.62,6.6
			c1.08,1.83,2.86,3.55,5.34,5.18c2.48,1.62,6.94,3.77,13.39,6.43c7.26,3.02,12.58,5.84,15.96,8.46c3.38,2.62,5.86,5.57,7.44,8.86
			C154.53,576.06,155.32,579.94,155.32,584.4z"/>
	</g>
	<g>
		<path class="st0" d="M188.67,611.26h-15.9V506h15.9V611.26z"/>
	</g>
	<g>
		<path class="st0" d="M210.45,516.62c0-2.84,0.78-5.03,2.33-6.56c1.56-1.53,3.78-2.3,6.66-2.3c2.8,0,4.97,0.77,6.53,2.3
			c1.56,1.53,2.33,3.72,2.33,6.56c0,2.71-0.78,4.84-2.33,6.39c-1.56,1.56-3.73,2.33-6.53,2.33c-2.89,0-5.11-0.78-6.66-2.33
			C211.23,521.46,210.45,519.33,210.45,516.62z M227.3,611.26h-15.9v-74.82h15.9V611.26z"/>
	</g>
	<g>
		<path class="st0" d="M315.85,611.26h-15.96v-46c0-5.77-1.16-10.08-3.48-12.92c-2.32-2.84-6.01-4.26-11.06-4.26
			c-6.72,0-11.64,1.99-14.75,5.95c-3.11,3.97-4.67,10.62-4.67,19.96v37.27h-15.9v-74.82h12.45l2.23,9.81h0.81
			c2.25-3.56,5.46-6.31,9.61-8.25c4.15-1.94,8.75-2.91,13.8-2.91c17.95,0,26.92,9.13,26.92,27.4V611.26z"/>
	</g>
	<g>
		<path class="st0" d="M353.33,571.75l9-11.23l22.59-24.08h18.33l-30.1,32.13l32,42.69h-18.67l-24.02-32.81l-8.73,7.17v25.64h-15.76
			V506h15.76v51.35l-0.81,14.41H353.33z"/>
	</g>
	<g>
		<path class="st0" d="M405.82,536.44h17.32l15.22,42.41c2.3,6.04,3.83,11.73,4.6,17.05h0.54c0.41-2.48,1.15-5.49,2.23-9.03
			c1.08-3.54,6.81-20.35,17.18-50.43h17.18l-32,84.76c-5.82,15.56-15.51,23.34-29.09,23.34c-3.52,0-6.95-0.38-10.28-1.15v-12.58
			c2.39,0.54,5.12,0.81,8.19,0.81c7.67,0,13.06-4.44,16.17-13.33l2.77-7.04L405.82,536.44z"/>
	</g>
</g>
</svg>
