<svg xmlns="http://www.w3.org/2000/svg" viewBox="0 0 580 672" fill="#fff" xmlns:v="https://vecta.io/nano"><path d="M478.18 86.8h0c0 17.57-14.24 31.8-31.8 31.8H123.63c-17.57 0-31.8-14.24-31.8-31.8h0c0-17.57 14.24-31.8 31.8-31.8h322.74c17.57-.02 31.8 14.22 31.8 31.8zm-80 78.6h0c0 17.57-14.24 31.8-31.8 31.8H43.63c-17.57 0-31.8-14.24-31.8-31.8h0c0-17.57 14.24-31.8 31.8-31.8h322.74c17.57-.01 31.8 14.23 31.8 31.8zm80 78.6h0c0 17.57-14.24 31.8-31.8 31.8H123.63c-17.57 0-31.8-14.24-31.8-31.8h0c0-17.57 14.24-31.8 31.8-31.8h322.74c17.57-.01 31.8 14.22 31.8 31.8zm90 78.6h0c0 17.57-14.24 31.8-31.8 31.8H213.63c-17.57 0-31.8-14.24-31.8-31.8h0c0-17.57 14.24-31.8 31.8-31.8h322.74c17.57-.01 31.8 14.23 31.8 31.8zm-90 78.6h0c0 17.57-14.24 31.8-31.8 31.8H123.63c-17.57 0-31.8-14.24-31.8-31.8h0c0-17.57 14.24-31.8 31.8-31.8h322.74c17.57 0 31.8 14.24 31.8 31.8zM155.32 584.4c0 8.8-3.18 15.7-9.54 20.7s-15.13 7.5-26.32 7.5-20.34-1.74-27.47-5.2v-15.3c4.5 2.12 9.3 3.8 14.38 5 5.07 1.22 9.8 1.83 14.17 1.83 6.4 0 11.13-1.22 14.17-3.65 3.04-2.44 4.57-5.7 4.57-9.8 0-3.7-1.4-6.83-4.2-9.4s-8.57-5.6-17.32-9.13c-9.02-3.65-15.38-7.82-19.08-12.5s-5.55-10.33-5.55-16.9c0-8.25 2.93-14.75 8.8-19.48 5.86-4.74 13.73-7.1 23.6-7.1 9.47 0 18.9 2.08 28.28 6.22l-5.14 13.2c-8.8-3.7-16.64-5.55-23.54-5.55-5.23 0-9.2 1.14-11.9 3.42s-4.06 5.3-4.06 9.03c0 2.57.54 4.77 1.62 6.6s2.86 3.55 5.34 5.18c2.48 1.62 6.94 3.77 13.4 6.43 7.26 3.02 12.58 5.84 15.96 8.46s5.86 5.57 7.44 8.86c1.6 3.26 2.4 7.14 2.4 11.6zm33.35 26.86h-15.9V506h15.9v105.26zm21.78-94.64c0-2.84.78-5.03 2.33-6.56 1.56-1.53 3.78-2.3 6.66-2.3 2.8 0 4.97.77 6.53 2.3s2.33 3.72 2.33 6.56c0 2.7-.78 4.84-2.33 6.4-1.56 1.56-3.73 2.33-6.53 2.33-2.9 0-5.1-.78-6.66-2.33s-2.33-3.68-2.33-6.4zm16.85 94.64h-15.9v-74.82h15.9v74.82zm88.55 0H299.9v-46c0-5.77-1.16-10.08-3.48-12.92s-6-4.26-11.06-4.26c-6.72 0-11.64 2-14.75 5.95-3.1 3.97-4.67 10.62-4.67 19.96v37.27h-15.9v-74.82h12.45l2.23 9.8h.8c2.25-3.56 5.46-6.3 9.6-8.25s8.75-2.9 13.8-2.9c17.95 0 26.92 9.13 26.92 27.4v48.77zm37.48-39.5l9-11.23 22.6-24.08h18.33l-30.1 32.13 32 42.7H386.5l-24.02-32.8-8.73 7.17v25.64h-15.76V506h15.76v51.35l-.8 14.4h.4zm52.5-35.3h17.32l15.22 42.4c2.3 6.04 3.83 11.73 4.6 17.05h.54c.4-2.48 1.15-5.5 2.23-9.03s6.8-20.35 17.18-50.43h17.18l-32 84.76c-5.82 15.56-15.5 23.34-29.1 23.34-3.52 0-6.95-.38-10.28-1.15V630.8c2.4.54 5.12.8 8.2.8 7.67 0 13.06-4.44 16.17-13.33l2.77-7.04-30.03-74.8z"/></svg>