<svg xmlns="http://www.w3.org/2000/svg" xmlns:xlink="http://www.w3.org/1999/xlink" viewBox="0 0 2399.1 2500" xmlns:v="https://vecta.io/nano"><g fill="#ccc"><path d="M2046.5 1639.8H915.6V691.6h1130.9v948.2zm-1050.8-80.1h970.7v-788H995.7v788z"/><use xlink:href="#B"/><use xlink:href="#B" x="-103.4" y="101.6"/><use xlink:href="#B" y="203.1"/><use xlink:href="#B" x="116.3" y="304.7"/><use xlink:href="#B" y="406.2"/><path d="M224.4 424.7v1951h1951v-1951h-1951zM671 572h189.4v189.4H671V572zm-284 0h189.4v189.4H387V572zm1625.8 340.4v1300.7H387V912.4h601.8V774.7h1024v137.7z"/></g><defs ><path id="B" d="M1724.2 962.6h0c0 22.7-18.4 41.1-41.1 41.1h-417c-22.7 0-41.1-18.4-41.1-41.1h0c0-22.7 18.4-41.1 41.1-41.1h417c22.7 0 41.1 18.4 41.1 41.1z"/></defs></svg>