<?xml version="1.0" encoding="utf-8"?>
<!-- Generator: Adobe Illustrator 24.1.2, SVG Export Plug-In . SVG Version: 6.00 Build 0)  -->
<svg version="1.1" id="Layer_1" xmlns="http://www.w3.org/2000/svg" xmlns:xlink="http://www.w3.org/1999/xlink" x="0px" y="0px"
	 viewBox="0 0 2399.1 2500" style="enable-background:new 0 0 2399.1 2500;" xml:space="preserve">
<style type="text/css">
	.st0{fill:#CCCCCC;}
</style>
<g>
	<path class="st0" d="M2046.5,1639.8H915.6V691.6h1130.9V1639.8z M995.7,1559.7h970.7v-788H995.7V1559.7z"/>
</g>
<g>
	<path class="st0" d="M1724.2,962.6L1724.2,962.6c0,22.7-18.4,41.1-41.1,41.1h-417c-22.7,0-41.1-18.4-41.1-41.1l0,0
		c0-22.7,18.4-41.1,41.1-41.1h417C1705.8,921.5,1724.2,939.9,1724.2,962.6z"/>
	<path class="st0" d="M1620.8,1064.2L1620.8,1064.2c0,22.7-18.4,41.1-41.1,41.1h-417c-22.7,0-41.1-18.4-41.1-41.1l0,0
		c0-22.7,18.4-41.1,41.1-41.1h417C1602.4,1023.1,1620.8,1041.5,1620.8,1064.2z"/>
	<path class="st0" d="M1724.2,1165.7L1724.2,1165.7c0,22.7-18.4,41.1-41.1,41.1h-417c-22.7,0-41.1-18.4-41.1-41.1l0,0
		c0-22.7,18.4-41.1,41.1-41.1h417C1705.8,1124.6,1724.2,1143,1724.2,1165.7z"/>
	<path class="st0" d="M1840.5,1267.3L1840.5,1267.3c0,22.7-18.4,41.1-41.1,41.1h-417c-22.7,0-41.1-18.4-41.1-41.1l0,0
		c0-22.7,18.4-41.1,41.1-41.1h417C1822.1,1226.2,1840.5,1244.6,1840.5,1267.3z"/>
	<path class="st0" d="M1724.2,1368.8L1724.2,1368.8c0,22.7-18.4,41.1-41.1,41.1h-417c-22.7,0-41.1-18.4-41.1-41.1l0,0
		c0-22.7,18.4-41.1,41.1-41.1h417C1705.8,1327.7,1724.2,1346.1,1724.2,1368.8z"/>
</g>
<path class="st0" d="M224.4,424.7v1951h1951v-1951H224.4z M671,572h189.4v189.4H671V572z M387,572h189.4v189.4H387V572z
	 M2012.8,912.4v722.3v578.4H387V912.4h601.8V774.7h1024V912.4z"/>
</svg>
