<svg xmlns="http://www.w3.org/2000/svg" viewBox="0 0 580 580"><linearGradient id="A" gradientUnits="userSpaceOnUse" x1="91.824" y1="132.805" x2="478.176" y2="132.805"><stop offset="0" stop-color="#29abe2"/><stop offset=".262" stop-color="#649ed3"/><stop offset=".773" stop-color="#d385b7"/><stop offset="1" stop-color="#ff7bac"/></linearGradient><path d="M478.18 132.8h0c0 17.57-14.24 31.8-31.8 31.8H123.63c-17.57 0-31.8-14.24-31.8-31.8h0c0-17.57 14.24-31.8 31.8-31.8h322.74c17.57-.02 31.8 14.22 31.8 31.8z" fill="url(#A)"/><linearGradient id="B" gradientUnits="userSpaceOnUse" x1="11.824" y1="211.403" x2="398.176" y2="211.403"><stop offset="0" stop-color="#29abe2"/><stop offset=".262" stop-color="#649ed3"/><stop offset=".773" stop-color="#d385b7"/><stop offset="1" stop-color="#ff7bac"/></linearGradient><path d="M398.18 211.4h0c0 17.57-14.24 31.8-31.8 31.8H43.63c-17.57 0-31.8-14.24-31.8-31.8h0c0-17.57 14.24-31.8 31.8-31.8h322.74c17.57-.01 31.8 14.23 31.8 31.8z" fill="url(#B)"/><linearGradient id="C" gradientUnits="userSpaceOnUse" x1="91.824" y1="290" x2="478.176" y2="290"><stop offset="0" stop-color="#29abe2"/><stop offset=".262" stop-color="#649ed3"/><stop offset=".773" stop-color="#d385b7"/><stop offset="1" stop-color="#ff7bac"/></linearGradient><path d="M478.18 290h0c0 17.57-14.24 31.8-31.8 31.8H123.63c-17.57 0-31.8-14.24-31.8-31.8h0c0-17.57 14.24-31.8 31.8-31.8h322.74c17.57-.01 31.8 14.22 31.8 31.8z" fill="url(#C)"/><linearGradient id="D" gradientUnits="userSpaceOnUse" x1="181.824" y1="368.598" x2="568.176" y2="368.598"><stop offset="0" stop-color="#29abe2"/><stop offset=".262" stop-color="#649ed3"/><stop offset=".773" stop-color="#d385b7"/><stop offset="1" stop-color="#ff7bac"/></linearGradient><path d="M568.18 368.6h0c0 17.57-14.24 31.8-31.8 31.8H213.63c-17.57 0-31.8-14.24-31.8-31.8h0c0-17.57 14.24-31.8 31.8-31.8h322.74c17.57-.01 31.8 14.23 31.8 31.8z" fill="url(#D)"/><linearGradient id="E" gradientUnits="userSpaceOnUse" x1="91.824" y1="447.195" x2="478.176" y2="447.195"><stop offset="0" stop-color="#29abe2"/><stop offset=".262" stop-color="#649ed3"/><stop offset=".773" stop-color="#d385b7"/><stop offset="1" stop-color="#ff7bac"/></linearGradient><path d="M478.18 447.2h0c0 17.57-14.24 31.8-31.8 31.8H123.63c-17.57 0-31.8-14.24-31.8-31.8h0c0-17.57 14.24-31.8 31.8-31.8h322.74c17.57 0 31.8 14.24 31.8 31.8z" fill="url(#E)"/></svg>