<?xml version="1.0" encoding="utf-8"?>
<!-- Generator: Adobe Illustrator 24.1.1, SVG Export Plug-In . SVG Version: 6.00 Build 0)  -->
<svg version="1.1" id="Layer_1" xmlns="http://www.w3.org/2000/svg" xmlns:xlink="http://www.w3.org/1999/xlink" x="0px" y="0px"
	 viewBox="0 0 24 24" style="enable-background:new 0 0 24 24;" xml:space="preserve">
<style type="text/css">
	.st0{fill:#FFFFFF;}
</style>
<path class="st0" d="M19,24H5c-1.1,0-2-0.9-2-2V5H2V3h6V1.5C8,0.67,8.67,0,9.5,0h5C15.32,0,16,0.67,16,1.5V3h6v2h-1v17
	C21,23.1,20.1,24,19,24z M19,5H5v16.5C5,21.78,5.22,22,5.5,22h13c0.28,0,0.5-0.22,0.5-0.5V5z M10,9c0-0.55-0.45-1-1-1S8,8.45,8,9v9
	c0,0.55,0.45,1,1,1s1-0.45,1-1V9z M16,9c0-0.55-0.45-1-1-1s-1,0.45-1,1v9c0,0.55,0.45,1,1,1s1-0.45,1-1V9z M14,2h-4v1h4V2z"/>
</svg>
